<svg width="33" height="32" viewBox="0 0 33 32" fill="none" xmlns="http://www.w3.org/2000/svg">
<path d="M27.5 24.6666H25.4375V26.6666H24.0625V24.6666H22V23.3333H24.0625V21.3333H25.4375V23.3333H27.5V24.6666ZM30.25 24C30.25 21.0591 27.7827 18.6666 24.75 18.6666C21.7173 18.6666 19.25 21.0591 19.25 24C19.25 26.9408 21.7173 29.3333 24.75 29.3333C27.7827 29.3333 30.25 26.9408 30.25 24ZM28.875 24C28.875 26.2056 27.0246 28 24.75 28C22.4754 28 20.625 26.2056 20.625 24C20.625 21.7943 22.4754 20 24.75 20C27.0246 20 28.875 21.7943 28.875 24ZM20.625 12H9.625V13.3333H20.625V12ZM20.625 15.3333H9.625V16.6666H20.625V15.3333ZM9.625 20H16.5V18.6666H9.625V20ZM26.125 8.41613V17.4675C25.6725 17.3781 25.2118 17.3331 24.75 17.3333V9.33329H19.9375V3.99996H8.25V28H19.2538C19.6456 28.5049 20.1088 28.9538 20.6298 29.3333H6.875V2.66663H20.937L26.125 8.41613ZM23.9224 7.99996L21.3125 5.10763V7.99996H23.9224Z" fill="white" fill-opacity="0.9"/>
</svg>
