<svg width="175" height="175" viewBox="0 0 175 175" fill="none" xmlns="http://www.w3.org/2000/svg">
<path d="M138.542 51.0416H36.4584V36.4583H138.542V51.0416ZM127.604 145.833C127.604 149.854 124.332 153.125 120.313 153.125H54.6876C50.6662 153.125 47.3959 149.854 47.3959 145.833V58.3333H61.9792V109.375H69.2709V58.3333H83.8542V109.375H91.1459V58.3333H105.729V109.375H113.021V58.3333H127.604V145.833ZM72.9167 21.8749H102.083C106.104 21.8749 109.375 25.1452 109.375 29.1666H65.6251C65.6251 25.1452 68.8963 21.8749 72.9167 21.8749ZM145.833 29.1666H116.667C116.667 21.1257 110.124 14.5833 102.083 14.5833H72.9167C64.875 14.5833 58.3334 21.1257 58.3334 29.1666H29.1667V58.3333H40.1042V145.833C40.1042 153.874 46.6467 160.417 54.6876 160.417H120.313C128.353 160.417 134.896 153.874 134.896 145.833V58.3333H145.833V29.1666Z" fill="#26A3CA"/>
</svg>
