<svg width="16" height="20" viewBox="0 0 16 20" fill="none" xmlns="http://www.w3.org/2000/svg">
<path d="M15 4.79167H1V2.875H15V4.79167ZM13.5 17.25C13.5 17.7784 13.0513 18.2083 12.5 18.2083H3.5C2.9485 18.2083 2.5 17.7784 2.5 17.25V5.75H4.5V12.4583H5.5V5.75H7.5V12.4583H8.5V5.75H10.5V12.4583H11.5V5.75H13.5V17.25ZM6 0.958333H10C10.5514 0.958333 11 1.38815 11 1.91667H5C5 1.38815 5.44863 0.958333 6 0.958333ZM16 1.91667H12C12 0.859865 11.1027 0 10 0H6C4.89713 0 4 0.859865 4 1.91667H0V5.75H1.5V17.25C1.5 18.3068 2.39725 19.1667 3.5 19.1667H12.5C13.6027 19.1667 14.5 18.3068 14.5 17.25V5.75H16V1.91667Z" fill="black"/>
</svg>
