<svg width="108" height="24" viewBox="0 0 108 24" fill="none" xmlns="http://www.w3.org/2000/svg">
<g clip-path="url(#clip0_37_207)">
<path d="M11.9844 -0.0221863C9.60607 -0.0221863 7.28115 0.682902 5.30364 2.00391C3.32614 3.32493 1.78486 5.20253 0.874708 7.3993C-0.0354392 9.59606 -0.273575 12.0133 0.190414 14.3454C0.654403 16.6775 1.79968 18.8196 3.48141 20.5009C5.16314 22.1823 7.3058 23.3273 9.63843 23.7911C11.9711 24.255 14.3889 24.017 16.5862 23.107C18.7835 22.1971 20.6615 20.6562 21.9829 18.6791C23.3042 16.7021 24.0094 14.3777 24.0094 12C24.0094 8.81151 22.7425 5.75362 20.4874 3.49903C18.2323 1.24443 15.1736 -0.0221863 11.9844 -0.0221863ZM11.9844 22.8998C9.82812 22.8998 7.72025 22.2605 5.92737 21.0628C4.13448 19.8651 2.73709 18.1628 1.91192 16.1711C1.08675 14.1795 0.870842 11.9879 1.29151 9.87354C1.71218 7.7592 2.75053 5.81704 4.27526 4.29268C5.79998 2.76832 7.7426 1.73022 9.85745 1.30965C11.9723 0.889082 14.1644 1.10493 16.1566 1.92991C18.1487 2.75489 19.8514 4.15194 21.0494 5.9444C22.2474 7.73685 22.8868 9.84421 22.8868 12C22.8861 14.8906 21.7373 17.6626 19.6928 19.7066C17.6484 21.7505 14.8757 22.8991 11.9844 22.8998Z" fill="black"/>
<path d="M16.9491 4.49237H16.1258V8.60784H7.86793V4.49237H7.01969C5.7773 5.3118 4.75767 6.4266 4.05219 7.73688C3.34671 9.04715 2.97742 10.5119 2.97742 12C2.97742 13.488 3.34671 14.9528 4.05219 16.2631C4.75767 17.5734 5.7773 18.6882 7.01969 19.5076H7.86793V15.3971H16.1258V19.5126H16.9491C18.192 18.6936 19.2122 17.5789 19.918 16.2686C20.6239 14.9583 20.9934 13.4933 20.9934 12.005C20.9934 10.5167 20.6239 9.05171 19.918 7.74138C19.2122 6.43106 18.192 5.31639 16.9491 4.49736V4.49237ZM6.72032 17.8914C5.94658 17.204 5.31584 16.3711 4.86412 15.44C4.4124 14.509 4.14854 13.4981 4.08761 12.4651C4.02668 11.4321 4.16987 10.3972 4.50902 9.41955C4.84816 8.44188 5.3766 7.54058 6.06418 6.7671C6.27026 6.53696 6.48933 6.31877 6.72032 6.11362V17.8914ZM16.1258 14.2498H7.86793V9.73024H16.1258V14.2498ZM17.2485 17.8664V15.3722V8.60784V6.11362C18.0203 6.80653 18.648 7.64469 19.0957 8.58023C19.5434 9.51576 19.8024 10.5303 19.8578 11.5659C19.9131 12.6016 19.7639 13.6379 19.4184 14.6159C19.073 15.5938 18.5383 16.4941 17.8447 17.2653C17.6561 17.4739 17.4571 17.6728 17.2485 17.8614V17.8664Z" fill="black"/>
<path fill-rule="evenodd" clip-rule="evenodd" d="M46.1912 11.7006C46.844 11.4481 47.404 11.0023 47.7964 10.4228C48.1887 9.84331 48.3947 9.15784 48.3867 8.45813C48.3867 5.53988 46.3159 4.09323 43.4719 4.09323H36.0123V19.9615H44.1205C46.6153 19.9615 49.0603 18.2155 49.0603 15.5467C49.0603 12.3741 46.1912 11.7306 46.1912 11.7006ZM39.9043 7.38561H42.7982C42.9836 7.37413 43.1693 7.39929 43.3449 7.45967C43.5205 7.52004 43.6824 7.61444 43.8214 7.73746C43.9605 7.86048 44.0739 8.0097 44.1552 8.17659C44.2365 8.34348 44.284 8.52475 44.2951 8.71004C44.2951 8.76658 44.2951 8.82395 44.2951 8.88215C44.2873 9.27225 44.1255 9.64345 43.8452 9.91487C43.5648 10.1863 43.1885 10.336 42.7982 10.3313H39.8793L39.9043 7.38561ZM42.8232 16.6392H39.9292V13.5214H42.7483C44.1704 13.5214 44.844 14.145 44.844 15.0678C44.844 16.2202 43.9958 16.6392 42.8232 16.6392Z" fill="#ED0007"/>
<path fill-rule="evenodd" clip-rule="evenodd" d="M57.6425 3.69424C53.052 3.69424 50.3576 7.36076 50.3576 12C50.3576 16.6393 53.052 20.3058 57.6425 20.3058C62.2329 20.3058 64.9273 16.6642 64.9273 12C64.9273 7.33581 62.2579 3.69424 57.6425 3.69424ZM57.6425 16.5146C55.3971 16.5146 54.2744 14.4942 54.2744 12C54.2744 9.50579 55.3971 7.51041 57.6425 7.51041C59.8878 7.51041 61.0354 9.53073 61.0354 12C61.0354 14.5192 59.8878 16.5146 57.6425 16.5146Z" fill="#ED0007"/>
<path fill-rule="evenodd" clip-rule="evenodd" d="M73.3848 10.3289L72.8359 10.2042C71.4887 9.92979 70.4159 9.5806 70.4159 8.60785C70.4159 7.56027 71.4388 7.13626 72.337 7.13626C72.9497 7.14538 73.554 7.28078 74.1121 7.53398C74.6701 7.78719 75.1699 8.15276 75.5802 8.60785L78.0501 6.16351C76.9274 4.89145 75.1062 3.66928 72.2621 3.66928C68.9191 3.66928 66.3743 5.53995 66.3743 8.65773C66.3743 11.5012 68.4201 12.8979 70.9149 13.4217L71.4638 13.5464C73.5345 13.9704 74.3079 14.2947 74.3079 15.2924C74.3079 16.2402 73.4596 16.8637 72.1623 16.8637C70.6155 16.8637 69.2184 16.1903 68.1457 14.8185L65.6259 17.3127C67.023 18.9838 68.7943 20.2808 72.2122 20.2808C75.1811 20.2808 78.3495 18.5848 78.3495 15.1178C78.3994 11.5012 75.6551 10.8028 73.3848 10.3289Z" fill="#ED0007"/>
<path fill-rule="evenodd" clip-rule="evenodd" d="M87.2311 16.5146C85.4847 16.5146 83.6635 15.0679 83.6635 11.9002C83.6635 9.08176 85.3599 7.5104 87.1313 7.5104C88.5284 7.5104 89.3516 8.1589 90.0003 9.2813L93.1937 7.16121C91.597 4.74181 89.7009 3.71918 87.0814 3.71918C82.2913 3.71918 79.6967 7.43557 79.6967 11.9252C79.6967 16.6393 82.5657 20.3307 87.0315 20.3307C90.1749 20.3307 91.6718 19.2333 93.2935 16.8887L90.0751 14.7237C89.4265 15.7663 88.7279 16.5146 87.2311 16.5146Z" fill="#ED0007"/>
<path fill-rule="evenodd" clip-rule="evenodd" d="M103.847 4.09323V9.92972H99.0316V4.09323H94.8652V19.9565H99.0316V13.696H103.847V19.9565H108.013V4.09323H103.847Z" fill="#ED0007"/>
</g>
<defs>
<clipPath id="clip0_37_207">
<rect width="108" height="24" fill="white"/>
</clipPath>
</defs>
</svg>
