<svg width="35" height="33" viewBox="0 0 35 33" fill="none" xmlns="http://www.w3.org/2000/svg">
<path d="M17.5 24.75C8.42147 24.75 3.92196 17.1526 3.73475 16.8293L3.54443 16.5L3.73475 16.1707C3.92196 15.8476 8.42147 8.25 17.5 8.25C26.5784 8.25 31.0779 15.8474 31.2652 16.1707L31.4555 16.5L31.2652 16.8293C31.0779 17.1524 26.5784 24.75 17.5 24.75ZM5.22626 16.4993C6.17636 17.9099 10.3235 23.375 17.5 23.375C24.6948 23.375 28.8257 17.9138 29.7737 16.5009C28.8228 15.0892 24.6759 9.625 17.5 9.625C10.3051 9.625 6.17417 15.0863 5.22626 16.4993ZM17.5 21.3125C14.6854 21.3125 12.3958 19.1537 12.3958 16.5C12.3958 13.8463 14.6854 11.6875 17.5 11.6875C20.3145 11.6875 22.6041 13.8463 22.6041 16.5C22.6041 19.1537 20.3145 21.3125 17.5 21.3125ZM17.5 13.0625C15.4896 13.0625 13.8541 14.6046 13.8541 16.5C13.8541 18.3954 15.4896 19.9375 17.5 19.9375C19.5103 19.9375 21.1458 18.3954 21.1458 16.5C21.1458 14.6046 19.5103 13.0625 17.5 13.0625Z" fill="black"/>
</svg>
